<?xml version="1.0" encoding="utf-8"?>
<!-- Generator: Adobe Illustrator 23.0.3, SVG Export Plug-In . SVG Version: 6.00 Build 0)  -->
<svg version="1.1" id="Ebene_1" xmlns="http://www.w3.org/2000/svg" xmlns:xlink="http://www.w3.org/1999/xlink" x="0px" y="0px"
	 viewBox="0 0 64 64" style="enable-background:new 0 0 64 64;" xml:space="preserve">
<style type="text/css">
	.st0{fill:#0F789C;}
	.st1{fill:#40ABC7;}
	.st2{fill:#FFFFFF;}
</style>
<g>
	<polygon class="st0" points="11.1103,60.5134 11.1103,6.6523 8.2505,6.6523 8.2505,60.5134 8.2505,63.0327 8.2505,63.373 
		48.9637,63.373 48.9637,60.5134 	"/>
	<g>
		<path class="st1" d="M54.5973,15.6997L39.8182,0.9208H19.9511h-1.9335l-0.0019,0.0022c-1.5508,0.0084-2.8171,1.279-2.8171,2.8316
			v0.2481l-0.0121,0.0132v52.7367h26.3095c0.0951,0.0097,0.1916,0.0148,0.2892,0.0148h9.9784c1.5578,0,2.8324-1.2747,2.8324-2.8324
			v-1.7143l0.0012-0.0006V15.6997z"/>
		<polygon class="st0" points="54.6119,15.6702 39.869,15.6702 39.869,0.9273 		"/>
	</g>
	<g>
		<path class="st2" d="M48.666,22.4642H21.1324c-0.4894,0-0.8899,0.4005-0.8899,0.8899v0.0791c0,0.4894,0.4005,0.8899,0.8899,0.8899
			H48.666c0.4894,0,0.8899-0.4005,0.8899-0.8899v-0.0791C49.5559,22.8646,49.1554,22.4642,48.666,22.4642z"/>
		<path class="st2" d="M48.666,28.4055H21.1324c-0.4894,0-0.8899,0.4005-0.8899,0.8899v0.0791c0,0.4894,0.4005,0.8899,0.8899,0.8899
			H48.666c0.4894,0,0.8899-0.4005,0.8899-0.8899v-0.0791C49.5559,28.8059,49.1554,28.4055,48.666,28.4055z"/>
		<path class="st2" d="M48.666,34.3467H21.1324c-0.4894,0-0.8899,0.4005-0.8899,0.8899v0.0791c0,0.4894,0.4005,0.8899,0.8899,0.8899
			H48.666c0.4894,0,0.8899-0.4005,0.8899-0.8899v-0.0791C49.5559,34.7472,49.1554,34.3467,48.666,34.3467z"/>
		<path class="st2" d="M48.666,40.288H21.1324c-0.4894,0-0.8899,0.4005-0.8899,0.8899v0.0791c0,0.4894,0.4005,0.8899,0.8899,0.8899
			H48.666c0.4894,0,0.8899-0.4005,0.8899-0.8899v-0.0791C49.5559,40.6885,49.1554,40.288,48.666,40.288z"/>
		<path class="st2" d="M43.8529,46.2293H21.1324c-0.4894,0-0.8899,0.4005-0.8899,0.8899v0.0791
			c0,0.4894,0.4005,0.8899,0.8899,0.8899h22.7205c0.4894,0,0.8899-0.4005,0.8899-0.8899v-0.0791
			C44.7428,46.6298,44.3424,46.2293,43.8529,46.2293z"/>
	</g>
</g>
</svg>
