<svg xmlns="http://www.w3.org/2000/svg" xmlns:xlink="http://www.w3.org/1999/xlink" viewBox="0 0 456.2 266"><defs><clipPath id="a"><rect x="183.4" y="171.2" width="109.2" height="95.77" style="fill:none"/></clipPath><clipPath id="b"><rect x="183.4" y="171.2" width="109.2" height="95.76" style="fill:none"/></clipPath></defs><title>support-ecosystem</title><path d="M125.9,113H109.4c-9.7,32.9,16,52.8,22.5,58.1,8.7,7.2-2.4,29.8-4.3,36.6h44.7c1.7-2.5,9.1-18.4,18.2-17.3s13.5-1.8,14.8-3.8c3.5-5.8,2.6-27.6,4.1-28.4,3.9-2.1,5.8-3.2,6.9-5.3s-9.1-14.5-10.1-15.7-7-24.3-7-24.3" style="fill:#40abc7"/><g style="opacity:0.399993985891342"><path d="M199.8,165.9a9.6,9.6,0,1,1,0-19.1h1.4A27.5,27.5,0,0,1,228.4,123h.2a29.1,29.1,0,0,1,58,3.6v1.5h.5a19,19,0,1,1,0,37.9Z" style="fill:#0f789c"/></g><path d="M17.1,100.2l.9-2.4-.4-.9-2.5-.8-.2-2.6,2.4-1.4.3-.8L16.4,89l1.8-2,2.6.8.8-.4.8-2.4,2.7-.2,1.3,2.4.8.3,2.3-1.2L31.6,88l-.8,2.6.3.8,2.6,1v2.7l-2.4,1.1-.3.8,1.1,2.5-1.8,2-2.5-.9-.7.4-1,2.5-2.7.2-1.1-2.4-.8-.3-2.5,1Z" style="fill:#fff"/><path d="M63.7,110.5c-2.5-1.7-5.3-.5-6.5.3L41.4,122.3H32.2L29.9,120h8.5c2.5,0,5.4-1.7,5.4-4.6s-2.9-4.6-5.4-4.6H35.2c-2.3,0-5.1.2-7-.9a14.6,14.6,0,0,0-6.3-1.4,13.1,13.1,0,0,0-9.5,3.9L0,124.6l13.8,13.8,4.6-6.9H40.2a9.9,9.9,0,0,0,6.3-2.4l17.3-15.4A2.1,2.1,0,0,0,63.7,110.5Z" style="fill:#005478"/><path d="M60.6,96.7l-3.4-1.6h0l-.8-2h0l1.4-3.4h0L56,87.9h0l-3.6,1.3-1.9-.9h0l-1.6-3.5H46.2l-1.2,3a1.8,1.8,0,0,1-.5.7l-1.6.6-3.6-1.3h0l-1.8,1.9h0L39,93h0l-1,2h0l-3.4,1.7h0v2.6h0l3.4,1.3h0l.8,2h0l-1.3,3.7h0l1.9,1.9h0l3.4-1.5,2.1.9h0l1.3,3.4h2.7l1.6-3.4h0l2-.8,3.3,1.4h0l1.9-1.8h0l-1.2-3.6h0l.7-2.1h0l3.4-1.3h0V96.7Zm-12.9,5.1a3.7,3.7,0,1,1,3.6-3.6A3.5,3.5,0,0,1,47.7,101.8Z" style="fill:#40abc7"/><path d="M17.1,100.2l.9-2.4-.4-.9-2.5-.8-.2-2.6,2.4-1.4.3-.8L16.4,89l1.8-2,2.6.8.8-.4.8-2.4,2.7-.2,1.3,2.4.8.3,2.3-1.2L31.6,88l-.8,2.6.3.8,2.6,1v2.7l-2.4,1.1-.3.8,1.1,2.5-1.8,2-2.5-.9-.7.4-1,2.5-2.7.2-1.1-2.4-.8-.3-2.5,1Zm1.5-4.5,1,2-.8,2,.6.6,2.2-.9,1.9.6,1,2h.8l.8-2.1,1.8-1,2.1.7.5-.6-.9-2.1.7-2,2.1-.9v-.9l-2.1-.8-.8-1.7.6-2.3-.7-.5-2,1-1.9-.7-1.1-2h-.9l-.6,2.1-.3.2-1.6.6-2.3-.5-.5.6,1,2L18.4,93l-2,1.2V95Z" style="fill:#0f789b"/><circle cx="24.4" cy="94.1" r="2.5" style="fill:#41aac8"/><g style="opacity:0.539992988109589"><g style="clip-path:url(#a)"><g style="clip-path:url(#b)"><path d="M274,171.3h16.5c9.6,32.9-16.1,52.8-22.6,58.1-8.6,7.2,2.5,29.8,4.3,36.6H227.6c-1.7-2.5-9.1-18.4-18.3-17.3s-13.5-1.8-14.7-3.8c-3.6-5.8-2.7-27.6-4.2-28.4-3.9-2-5.7-3.2-6.9-5.3s9.2-14.5,10.2-15.7,6.9-24.3,6.9-24.3Z" style="fill:#0f789c"/></g></g></g><g style="opacity:0.399993985891342"><path d="M209.1,107.3a10.4,10.4,0,0,0,.1-20.7h-1.5a29.8,29.8,0,0,0-29.3-25.9h-.3a31.4,31.4,0,0,0-62.6,3.6c0,.5.1,1.1.1,1.6h-.7a20.5,20.5,0,1,0-.1,40.9Z" style="fill:#0f789c"/></g><path d="M186.5,113.7h-13l-6.6-11.3,6.6-11.3h13l6.6,11.3Zm-12.7-.6h12.3l6.2-10.7-6.2-10.6H173.8l-6.1,10.6Z" style="fill:#0f789c"/><path d="M194.1,102.7a1.7,1.7,0,0,1-1.7,1.7,1.7,1.7,0,0,1-1.8-1.7,1.8,1.8,0,0,1,1.8-1.7,1.8,1.8,0,0,1,1.7,1.7" style="fill:#0f789c"/><path d="M188.1,91.4a1.8,1.8,0,0,1-1.8,1.8,1.8,1.8,0,0,1-1.7-1.8,1.8,1.8,0,0,1,1.7-1.7,1.8,1.8,0,0,1,1.8,1.7" style="fill:#0f789c"/><path d="M175.4,91.4a1.8,1.8,0,0,1-1.7,1.8,1.7,1.7,0,0,1-1.7-1.8,1.7,1.7,0,0,1,1.7-1.7,1.8,1.8,0,0,1,1.7,1.7" style="fill:#0f789c"/><path d="M188.1,113.4a1.8,1.8,0,0,1-1.8,1.8,1.8,1.8,0,0,1-1.7-1.8,1.8,1.8,0,0,1,1.7-1.7,1.8,1.8,0,0,1,1.8,1.7" style="fill:#0f789c"/><path d="M175.4,113.4a1.8,1.8,0,0,1-1.7,1.8,1.7,1.7,0,0,1-1.7-1.8,1.7,1.7,0,0,1,1.7-1.7,1.8,1.8,0,0,1,1.7,1.7" style="fill:#0f789c"/><path d="M169.1,102.7a1.7,1.7,0,0,1-1.8,1.7,1.7,1.7,0,0,1-1.7-1.7,1.8,1.8,0,0,1,1.7-1.7,1.8,1.8,0,0,1,1.8,1.7" style="fill:#0f789c"/><path d="M167.5,125H154.4l-6.5-11.3,6.5-11.3h13.1l6.5,11.3Zm-12.7-.7h12.3l6.2-10.6L167.1,103H154.8l-6.1,10.7Z" style="fill:#0f789c"/><path d="M169,102.7a1.7,1.7,0,0,1-1.7,1.7,1.8,1.8,0,0,1-1.7-1.7,1.7,1.7,0,0,1,1.7-1.7,1.6,1.6,0,0,1,1.7,1.7" style="fill:#0f789c"/><path d="M156.4,102.7a1.8,1.8,0,0,1-1.7,1.7,1.8,1.8,0,0,1-1.8-1.7,1.7,1.7,0,0,1,1.8-1.7,1.7,1.7,0,0,1,1.7,1.7" style="fill:#0f789c"/><path d="M169,124.7a1.7,1.7,0,0,1-1.7,1.7,1.8,1.8,0,0,1-1.7-1.7,1.7,1.7,0,0,1,1.7-1.7,1.6,1.6,0,0,1,1.7,1.7" style="fill:#0f789c"/><path d="M156.4,124.7a1.8,1.8,0,0,1-1.7,1.7,1.8,1.8,0,0,1-1.8-1.7,1.7,1.7,0,0,1,1.8-1.7,1.7,1.7,0,0,1,1.7,1.7" style="fill:#0f789c"/><path d="M150,114a1.7,1.7,0,0,1-1.7,1.7,1.8,1.8,0,0,1-1.7-1.7,1.8,1.8,0,0,1,1.7-1.8A1.7,1.7,0,0,1,150,114" style="fill:#0f789c"/><path d="M186.5,135.7h-13l-6.6-11.3,6.6-11.3h13l6.6,11.3Zm-12.7-.7h12.3l6.2-10.6-6.2-10.7H173.8l-6.1,10.7Z" style="fill:#0f789c"/><path d="M194.1,124.7a1.8,1.8,0,0,1-1.7,1.7,1.8,1.8,0,0,1-1.8-1.7,1.8,1.8,0,0,1,1.8-1.8,1.8,1.8,0,0,1,1.7,1.8" style="fill:#0f789c"/><path d="M188.1,113.4a1.8,1.8,0,0,1-1.8,1.7,1.8,1.8,0,0,1-1.7-1.7,1.7,1.7,0,0,1,1.7-1.7,1.7,1.7,0,0,1,1.8,1.7" style="fill:#0f789c"/><path d="M175.4,113.4a1.8,1.8,0,0,1-1.7,1.7,1.7,1.7,0,0,1-1.7-1.7,1.6,1.6,0,0,1,1.7-1.7,1.7,1.7,0,0,1,1.7,1.7" style="fill:#0f789c"/><path d="M188.1,135.4a1.8,1.8,0,0,1-1.8,1.7,1.8,1.8,0,0,1-1.7-1.7,1.7,1.7,0,0,1,1.7-1.7,1.7,1.7,0,0,1,1.8,1.7" style="fill:#0f789c"/><path d="M175.4,135.4a1.8,1.8,0,0,1-1.7,1.7,1.7,1.7,0,0,1-1.7-1.7,1.6,1.6,0,0,1,1.7-1.7,1.7,1.7,0,0,1,1.7,1.7" style="fill:#0f789c"/><path d="M169.1,124.7a1.8,1.8,0,0,1-1.8,1.7,1.8,1.8,0,0,1-1.7-1.7,1.8,1.8,0,0,1,1.7-1.8,1.8,1.8,0,0,1,1.8,1.8" style="fill:#0f789c"/><path d="M255.2,90.8c-2.5,3.1-3,6.9-3.2,10.8h-4.7l9.7,13,9.7-13h-5.1c0-4.7.8-15,12.1-12v-.5C272.6,88.1,260.9,83.8,255.2,90.8Z" style="fill:#005478;fill-rule:evenodd"/><path d="M235,116.6V149a2.9,2.9,0,0,0,2.8,2.9h38a2.9,2.9,0,0,0,2.8-2.9V116.6Z" style="fill:#40abc7"/><path d="M243.3,151.9h-5.5a2.9,2.9,0,0,1-2.9-2.9v-5.5h0a8.3,8.3,0,0,1,8.4,8.4Z" style="fill:#0f789c"/><path d="M275.7,151.9h-5.5a8.3,8.3,0,0,1,8.4-8.4h0V149A2.9,2.9,0,0,1,275.7,151.9Z" style="fill:#0f789c"/><rect x="235" y="116.6" width="43.6" height="5.04" style="fill:#0f789c"/><path d="M263.9,130.3H249.7a2,2,0,0,1-1.9-1.9,1.9,1.9,0,0,1,1.9-1.9h14.2a1.9,1.9,0,0,1,2,1.9A2,2,0,0,1,263.9,130.3Z" style="fill:#fff"/><path d="M117.5,209.1h.1a1.1,1.1,0,0,1-.7,1.3,1,1,0,0,1-.7-1.9h.1A1,1,0,0,1,117.5,209.1Zm-6,1.6c0,.1.1.1.1.2a1,1,0,0,1-.8,1.2h-.1a1.1,1.1,0,0,1-1.2-.8,1,1,0,0,1,.8-1.2h.1A.9.9,0,0,1,111.5,210.7Zm-6.1,1c0,.1.1.2.1.4a1.2,1.2,0,0,1-.9,1.1,1.2,1.2,0,0,1-1.2-.9.9.9,0,0,1,.8-1.1h.2A1.1,1.1,0,0,1,105.4,211.7Zm-6.2.4c0,.2.1.3.1.5a1.1,1.1,0,0,1-1,1,1,1,0,0,1-1.1-1,.9.9,0,0,1,.9-1h.1A.9.9,0,0,1,99.2,212.1Zm-6.2-.2a4.3,4.3,0,0,0,.1.5,1.2,1.2,0,0,1-1.1,1h-.1a1.2,1.2,0,0,1-1-1.1,1,1,0,0,1,1.1-.9h.1A1.1,1.1,0,0,1,93,211.9Zm-6.2-.8a1.5,1.5,0,0,1,.1.7,1,1,0,0,1-1.2.8h-.1a1,1,0,0,1-.8-1.2,1,1,0,0,1,1.2-.8h0C86.4,210.6,86.6,210.9,86.8,211.1Zm-6.1-1.3a.8.8,0,0,1,.1.7,1.1,1.1,0,0,1-1.3.7h-.1a1.2,1.2,0,0,1-.7-1.3,1.1,1.1,0,0,1,1.3-.7h.1A.9.9,0,0,1,80.7,209.8Zm-5.9-2a1.1,1.1,0,0,1,.1.8,1,1,0,0,1-1.3.6h-.2a1.1,1.1,0,0,1-.5-1.4.9.9,0,0,1,1.3-.5h.1A1.2,1.2,0,0,1,74.8,207.8Zm-5.7-2.5a.7.7,0,0,1,0,.9.9.9,0,0,1-1.3.4h-.1a1.1,1.1,0,0,1-.5-1.4,1,1,0,0,1,1.4-.4h.1A1,1,0,0,1,69.1,205.3ZM34.4,138a.7.7,0,0,1,.1.6h0a1,1,0,0,1-1.2.8.9.9,0,0,1-.8-1.1,1,1,0,0,1,1.2-.9A.8.8,0,0,1,34.4,138Zm29.3,64.2a.9.9,0,0,1,0,1,1,1,0,0,1-1.4.3h-.1a1,1,0,1,1,1.1-1.7h0Zm-29.9-58a4.3,4.3,0,0,1,.1.5h0a1.1,1.1,0,0,1-2.1-.1v-.2a1.2,1.2,0,0,1,1.1-.9A1,1,0,0,1,33.8,144.2Zm24.8,54.5a.9.9,0,0,1-.1,1.1,1,1,0,0,1-1.4.1,1,1,0,0,1-.3-1.4,1,1,0,0,1,1.4-.3h.1C58.5,198.4,58.6,198.5,58.6,198.7ZM33.7,150.4c.1.1.1.2.1.4h0a1.1,1.1,0,0,1-1,1.1,1.1,1.1,0,0,1-1-1,1,1,0,0,1,1-1.1A.8.8,0,0,1,33.7,150.4Zm20.2,44.2a1.1,1.1,0,0,1-.2,1.2,1,1,0,0,1-1.4,0,1.1,1.1,0,0,1-.1-1.5,1,1,0,0,1,1.4,0h.1Zm-19.6-38a.4.4,0,0,0,.1.3h0a1,1,0,0,1-.9,1.1.9.9,0,0,1-1.1-.8h-.1a1.2,1.2,0,0,1,.9-1.2A1.1,1.1,0,0,1,34.3,156.6Zm15.3,33.6a1,1,0,0,1-.3,1.2,1.1,1.1,0,0,1-1.4-.1h-.1a1.2,1.2,0,0,1,.1-1.5,1.1,1.1,0,0,1,1.5.2h0ZM35.4,162.7c0,.1.1.1.1.2h0a1,1,0,0,1-.8,1.2,1,1,0,0,1-1.2-.7,1.1,1.1,0,0,1,.8-1.3A1,1,0,0,1,35.4,162.7Zm10.3,22.6a.9.9,0,0,1-.3,1.2.9.9,0,0,1-1.4-.2h-.1a1,1,0,0,1,.3-1.4,1.1,1.1,0,0,1,1.4.2h0C45.7,185.2,45.7,185.2,45.7,185.3Zm-8.5-16.6h0a1,1,0,0,1-.6,1.3,1.1,1.1,0,0,1-1.3-.7h0a1,1,0,0,1,.6-1.3A1.2,1.2,0,0,1,37.2,168.7ZM42.4,180a1.1,1.1,0,0,1-.5,1.4,1,1,0,0,1-1.4-.4,1.1,1.1,0,0,1,.4-1.4,1,1,0,0,1,1.4.3h.1Zm-2.9-5.6h0a1.1,1.1,0,0,1-.5,1.4,1,1,0,0,1-1.3-.5h-.1a1.1,1.1,0,0,1,1.9-.9Z" style="fill:#40abc7"/><path d="M122.8,208.3a1.1,1.1,0,0,1-1.4-.5,1,1,0,0,1,.5-1.3h.1a1.1,1.1,0,1,1,.9,1.9h-.1" style="fill:#40abc7"/><path d="M369.2,85.3h.1a1,1,0,0,1,1.7,1.1.9.9,0,0,1-1.3.3h-.1A1,1,0,0,1,369.2,85.3Zm5.1,3.6a.3.3,0,0,1,.1-.2.9.9,0,0,1,1.4-.2h.1a1.1,1.1,0,0,1,.2,1.5,1.1,1.1,0,0,1-1.4.2h-.1A1,1,0,0,1,374.3,88.9Zm4.7,4,.2-.3a1.1,1.1,0,0,1,1.5,1.5,1,1,0,0,1-1.4,0h-.1A1.1,1.1,0,0,1,379,92.9Zm4.3,4.5.3-.4a1.1,1.1,0,0,1,1.4.1,1.1,1.1,0,0,1,0,1.5,1,1,0,0,1-1.4,0h-.1A1.1,1.1,0,0,1,383.3,97.4Zm3.9,4.9.3-.4a.9.9,0,0,1,1.4.2h.1a1.1,1.1,0,0,1-.2,1.4,1.2,1.2,0,0,1-1.5-.2h0A.9.9,0,0,1,387.2,102.3Zm3.3,5.2.5-.5a1,1,0,0,1,1.4.4h0a1,1,0,0,1-1.8,1h0A1,1,0,0,1,390.5,107.5Zm2.9,5.5.5-.5a1.1,1.1,0,0,1,1.4.5h0a1.1,1.1,0,0,1-1.9.9h0A1.4,1.4,0,0,1,393.4,113Zm2.3,5.8a1,1,0,0,1,.6-.5,1,1,0,0,1,1.3.6h0a1,1,0,0,1-.6,1.3,1,1,0,0,1-1.3-.7h0A1.1,1.1,0,0,1,395.7,118.8Zm1.7,6a1.3,1.3,0,0,1,.7-.6,1.1,1.1,0,0,1,1.3.7v.2a1,1,0,0,1-2,.4h0C397.3,125.2,397.4,125,397.4,124.8Zm-29,69.8.3-.4h.1a1,1,0,0,1,1.1,1.7,1.1,1.1,0,0,1-1.5-.3A1.2,1.2,0,0,1,368.4,194.6Zm30.2-63.7a.9.9,0,0,1,.8-.6.9.9,0,0,1,1.1.9h.1a1.2,1.2,0,0,1-.9,1.1,1,1,0,0,1-1.2-.9h0A.9.9,0,0,1,398.6,130.9Zm-25.1,60.3.3-.4h.1a1.1,1.1,0,0,1,1.4.2,1,1,0,0,1-.2,1.5H375a.9.9,0,0,1-1.4-.2A.9.9,0,0,1,373.5,191.2Zm25.7-54.1a.9.9,0,0,1,.9-.6,1,1,0,0,1,1,1,1.2,1.2,0,0,1-1,1.1,1,1,0,0,1-1-1h0A.6.6,0,0,1,399.2,137.1Zm-20.9,50.1.2-.3h.1a1,1,0,0,1,1.4,1.5,1.1,1.1,0,0,1-1.5,0A.9.9,0,0,1,378.3,187.2Zm20.8-43.9a1.1,1.1,0,0,1,1-.6,1,1,0,0,1,1,1.1,1.2,1.2,0,0,1-1.1,1,1,1,0,0,1-1-1h0C399,143.5,399.1,143.4,399.1,143.3Zm-16.4,39.5c0-.1.1-.2.1-.3h.1a1,1,0,0,1,1.4-.1.9.9,0,0,1,.1,1.4h-.1a1,1,0,0,1-1.4.1A1.1,1.1,0,0,1,382.7,182.8Zm15.8-33.3a1,1,0,0,1,1.1-.6,1,1,0,0,1,.8,1.1v.2a1,1,0,0,1-2-.4h0ZM386.6,178v-.2h.1a1.1,1.1,0,0,1,1.4-.2,1.1,1.1,0,0,1,.2,1.5,1.2,1.2,0,0,1-1.5.2A1.1,1.1,0,0,1,386.6,178Zm10.6-22.4a1.1,1.1,0,0,1,2,.6h-.1a1,1,0,0,1-1.2.8,1,1,0,0,1-.7-1.3h0ZM390,172.8c.1,0,.1,0,.1-.1h0a1.1,1.1,0,0,1,1.4-.3,1,1,0,0,1,.4,1.4h-.1a1,1,0,0,1-1.4.3A1.1,1.1,0,0,1,390,172.8Zm5.4-11.3a1,1,0,0,1,1.3-.5,1,1,0,1,1-.7,1.9.9.9,0,0,1-.7-1.2h.1Zm-2.4,5.8h0a1.1,1.1,0,0,1,1.9.9h-.1a1,1,0,0,1-1.3.5A1,1,0,0,1,393,167.3Z" style="fill:#40abc7"/><path d="M365.2,81.8a1,1,0,0,1,.5,1.3,1,1,0,0,1-1.3.6h-.1a1,1,0,0,1-.6-1.3,1.1,1.1,0,0,1,1.4-.6h.1" style="fill:#40abc7"/><path d="M262.3,29.3l-21.1-7.4V80.2l.5-.2C260.3,70.7,263,63.8,263,45V30.4A1.4,1.4,0,0,0,262.3,29.3Z" style="fill:#0f789c"/><path d="M219.4,30.4V45c0,18.8,2.7,25.7,21.3,35l.5.2V21.9l-21,7.4A1.3,1.3,0,0,0,219.4,30.4Z" style="fill:#005478"/><path d="M241.2,47.8c2.6,0,4.4-2,4.4-5s-1.8-5-4.4-5-4.4,1.9-4.4,5,1.7,5,4.4,5m6.4,2.7h0l-3.2-.3h0l-3.2,3.2L238,50.2h0l-3.1.3h0c-1.9.1-3,1.6-3.1,3.6h0v7.4h18.8V54.1h0c-.1-2-1.3-3.5-3-3.6" style="fill:#fff"/><path d="M261.5,24.2l-19.6-7h-1.4l-19.6,7a2.1,2.1,0,0,0-1.5,2v1.6a1.4,1.4,0,0,1,.8-1l20.6-7.2a1.1,1.1,0,0,1,.8,0l20.6,7.2a1.4,1.4,0,0,1,.8,1V26.2A2.1,2.1,0,0,0,261.5,24.2Z" style="fill:#40abc7"/><path d="M261.5,26.5l-19.6-6.9a3.3,3.3,0,0,0-1.4,0l-19.6,7a2.1,2.1,0,0,0-1.5,2v1.6a1.4,1.4,0,0,1,.8-1L240.8,22a1.1,1.1,0,0,1,.8,0l20.6,7.2a1.4,1.4,0,0,1,.8.9V28.6A2.3,2.3,0,0,0,261.5,26.5Z" style="fill:#fff"/><polygon points="140.8 184.3 69.9 184.3 69.9 139.7 140.8 139.7 140.8 184.3" style="fill:#fff"/><rect x="69.9" y="139.7" width="70.9" height="44.66" style="fill:none"/><polygon points="142.9 186.4 142.9 139.7 140.8 139.7 140.8 184.3 69.9 184.3 69.9 139.7 67.8 139.7 67.8 186.4 142.9 186.4" style="fill:#0f789b"/><polyline points="142.9 139.7 142.9 125.2 67.8 125.2 67.8 139.7 67.8 139.7" style="fill:#005578"/><path d="M75.8,133.5a1.3,1.3,0,0,0,1.4-1.3,1.4,1.4,0,0,0-1.4-1.4,1.3,1.3,0,0,0-1.3,1.4,1.3,1.3,0,0,0,1.3,1.3" style="fill:#fff"/><path d="M81.9,133.5a1.3,1.3,0,0,0,1.4-1.3,1.4,1.4,0,0,0-1.4-1.4,1.3,1.3,0,0,0-1.3,1.4,1.3,1.3,0,0,0,1.3,1.3" style="fill:#fff"/><path d="M88,133.5a1.3,1.3,0,0,0,1.4-1.3,1.4,1.4,0,0,0-1.4-1.4,1.3,1.3,0,0,0-1.3,1.4,1.3,1.3,0,0,0,1.3,1.3" style="fill:#40abc7"/><path d="M93,166.6l-3.9,1a16.8,16.8,0,0,0,1.7,4.1l3.5-2A16.9,16.9,0,0,1,93,166.6Z" style="fill:#40abc7"/><path d="M97.2,157l-4-.2a13,13,0,0,1,12.2-8.5v-4A17,17,0,0,0,90,154l-.3-4.5H87.3v9.9h9.9Z" style="fill:#005478"/><path d="M111,150.1a13,13,0,0,1,8.4,12.2h4.1a17.2,17.2,0,0,0-9.7-15.4l4.4-.3v-2.4h-9.8v9.9h2.3Z" style="fill:#0f789c"/><path d="M97.9,178.4a15,15,0,0,0,4.2,1.5l.9-3.9a16.1,16.1,0,0,1-3.3-1.2Z" style="fill:#40abc7"/><path d="M95.5,171.4l-3.1,2.5a15.7,15.7,0,0,0,3.2,3.1l2.4-3.3A10.9,10.9,0,0,1,95.5,171.4Z" style="fill:#40abc7"/><path d="M113.5,167.5l4,.2a13.1,13.1,0,0,1-12.2,8.5v4a17.1,17.1,0,0,0,15.4-9.7l.3,4.4h2.3v-9.8h-9.8Z" style="fill:#40abc7"/><path d="M111,163.3v-2.2h-2a1.1,1.1,0,0,0-.3-.7l1.4-1.3-1.6-1.6-1.3,1.4a1.1,1.1,0,0,0-.7-.3v-2h-2.2v2a.9.9,0,0,0-.7.3l-1.4-1.4-1.5,1.6,1.3,1.3a1.9,1.9,0,0,0-.2.7h-2v2.2h2a1.4,1.4,0,0,0,.2.7l-1.3,1.4,1.5,1.5,1.4-1.3.7.2v2h2.2v-2l.7-.2,1.3,1.3,1.6-1.5-1.4-1.4a.9.9,0,0,0,.3-.7Zm-5.6.6a1.7,1.7,0,1,1,1.7-1.7A1.8,1.8,0,0,1,105.4,163.9Z" style="fill:#0f789c"/><path d="M132.1,136.3l-.7-.7,6.9-6.4.7.7Zm-6.1,0-.7-.7,6.8-6.4.8.7Zm-6.1,0-.7-.7,6.8-6.4.7.7Zm-6.1,0-.8-.7,6.9-6.4.7.7Zm-6.2,0-.7-.7,6.9-6.4.7.7Zm-6,0-.7-.7,6.8-6.4.8.7Z" style="fill:#41aac8"/><circle cx="148.5" cy="66.1" r="14.3" style="fill:#fff"/><path d="M152.2,75.2l-.3-.4.5-.5.4.3Zm-2.2-.1-.4-.4,6.6-6.6.4.4Zm3.3-1-.3-.3,3.5-3.5.3.3Z" style="fill:#41aac8"/><path d="M165.3,68.1l2.9-2-2.8-2a17.2,17.2,0,0,0-15-14.9l-2-2.9-2,2.9a17,17,0,0,0-14.8,14.9l-2.9,2,2.9,2a16.9,16.9,0,0,0,14.8,14.8l2,3,2.1-2.9A17.1,17.1,0,0,0,165.3,68.1ZM148.5,79.5a13.5,13.5,0,1,1,13.4-13.4A13.4,13.4,0,0,1,148.5,79.5Z" style="fill:#40abc7"/><circle cx="133.2" cy="66.1" r="0.6" style="fill:#fff"/><circle cx="163.7" cy="66.1" r="0.6" style="fill:#fff"/><circle cx="148.5" cy="81.3" r="0.6" style="fill:#fff"/><circle cx="148.5" cy="50.9" r="0.6" style="fill:#fff"/><polygon points="148.2 65.5 141 72.7 151.2 68.6 148.2 65.5" style="fill:#41aac8"/><polygon points="148.2 65.5 141 72.7 145.1 62.5 148.2 65.5" style="fill:#0f789c"/><polygon points="148.2 65.5 155.3 58.4 145.1 62.5 148.2 65.5" style="fill:#005478"/><polygon points="148.2 65.5 155.3 58.4 151.2 68.6 148.2 65.5" style="fill:#0f789c"/><circle cx="148.2" cy="65.5" r="1.8" style="fill:#fff"/><path d="M343.7,150.9l11.1-3.1-.3,6.2c-.2,2.8-5.2,5-11.2,4.6s-10.8-2.9-10.6-5.8l.3-6.1ZM327,146.5h1.7l.2-3.4,14.9,5.9,20.8-5.9-20.1-8-20.8,5.9,3.4,1.3-.2,4.1Z" style="fill:#005478"/><path d="M327.7,147.8a2.2,2.2,0,0,0-2.1,1.9l-.2,5,3.9.2.3-5A1.9,1.9,0,0,0,327.7,147.8Z" style="fill:#40abc7"/><polygon points="353.1 72.1 308.2 72.1 308.2 87.3 304.2 87.3 304.2 87.4 357.2 87.4 357.2 87.3 353.1 87.3 353.1 72.1" style="fill:#fff"/><path d="M355.4,65.9H324.1l-2.5-4.2a1.9,1.9,0,0,0-1.6-.9H306a1.9,1.9,0,0,0-1.8,1.8V87.3h4V72.1h44.9V87.3h4.1V67.7A1.8,1.8,0,0,0,355.4,65.9Z" style="fill:#005478"/><path d="M349.7,78.6v-.7h0v-1a1.7,1.7,0,0,0-1.6-1.7H313.2a1.7,1.7,0,0,0-1.6,1.7h0v1.6Z" style="fill:#0f789c"/><path d="M360.9,87.7a1.4,1.4,0,0,0-1-.5H301.4a1.2,1.2,0,0,0-.9.5,1,1,0,0,0-.3,1l5,31.1a1.3,1.3,0,0,0,1.2,1.1h48.5a1.4,1.4,0,0,0,1.3-1.1l5-31.1A1.7,1.7,0,0,0,360.9,87.7Z" style="fill:#0f789c"/><path d="M349.7,82.3h0v-1a1.6,1.6,0,0,0-1.6-1.6H313.2a1.6,1.6,0,0,0-1.6,1.6v.2h0V83h0v2.5h38.1V83h0v-.7Z" style="fill:#40abc7"/><polygon points="306.4 49.2 302.6 47.4 302.2 54.1 317.3 45.1 307 40.3 306.4 49.2" style="fill:none"/><path d="M302,45.2a2.2,2.2,0,0,0,.8-3,2.3,2.3,0,0,0-3-.8,2.3,2.3,0,0,0-.8,3.1A2.2,2.2,0,0,0,302,45.2Z" style="fill:none"/><path d="M292.4,42l9,15.1,19-11.2-9.1-15.2Zm7.4-.6a2.3,2.3,0,0,1,3,.8,2.2,2.2,0,0,1-.8,3,2.2,2.2,0,0,1-3-.7A2.3,2.3,0,0,1,299.8,41.4Zm2.4,12.7.4-6.7,3.8,1.8.6-8.9,10.3,4.8Z" style="fill:#c8d6df"/><circle cx="300.9" cy="43.3" r="2.4" style="fill:#0f789c"/><polygon points="302.2 54.2 302.6 47.5 306.4 49.3 307 40.4 317.4 45.2 302.2 54.2" style="fill:#40abc7"/><path d="M336,25.1a10.5,10.5,0,1,0,10.8,10.1A10.5,10.5,0,0,0,336,25.1Zm-1.5,14.2-.2-7.8,6.8,3.7Z" style="fill:#c8d6df"/><polygon points="334.6 39.3 334.3 31.6 341.2 35.2 334.6 39.3" style="fill:#0f789c"/><path d="M354,35.9l5.7,25.8,19.4-4.3-5.7-25.8Zm3.9,2.5,12.9-2.9,1.5,6.5-12.9,2.8Zm2.4,10.8-.5-2.2,13-2.9.4,2.2Zm14.9,5.7-4.4,1-.9-4.4,4.3-.9Z" style="fill:#c8d6df"/><rect x="359.9" y="45.6" width="13.2" height="2.26" transform="translate(-1.4 80.5) rotate(-12.5)" style="fill:#0f789c"/><rect x="358.5" y="36.9" width="13.2" height="6.62" transform="translate(0 80) rotate(-12.5)" style="fill:#0f789c"/><rect x="370.3" y="51.1" width="4.4" height="4.41" transform="translate(-2.7 81.9) rotate(-12.5)" style="fill:#40abc7"/><path d="M336.3,60.9a1.3,1.3,0,0,1,1.1-1.2,1.2,1.2,0,0,1,1.2,1.2,1.1,1.1,0,0,1-1.1,1.1A1.1,1.1,0,0,1,336.3,60.9Zm0-3.5a1.2,1.2,0,0,1,1.1-1.2,1.2,1.2,0,0,1,1.2,1.2,1.1,1.1,0,0,1-1.1,1.1A1.1,1.1,0,0,1,336.3,57.4Zm-.9-4.6a2,2,0,0,1,2-2.1,2.1,2.1,0,1,1,.1,4.2A2.1,2.1,0,0,1,335.4,52.8Zm10,6.4a1.1,1.1,0,0,1,1.6-1.6,1.1,1.1,0,1,1-1.6,1.6ZM343,61.7a1.1,1.1,0,0,1-.1-1.6,1.2,1.2,0,0,1,1.7,0,1.1,1.1,0,1,1-1.6,1.6Zm4.9-4.9a1,1,0,0,1,0-1.6,1.1,1.1,0,1,1,0,1.6Zm2.5-2.5a2.1,2.1,0,1,1,2.9-3,2.1,2.1,0,0,1,.1,3A2.2,2.2,0,0,1,350.4,54.3Zm-22.6,4.9a1.1,1.1,0,0,1,.1-1.6,1.1,1.1,0,0,1,1.6,1.6A1.2,1.2,0,0,1,327.8,59.2Zm2.5,2.5a1.2,1.2,0,0,1,0-1.6,1.2,1.2,0,0,1,1.7,0,1.1,1.1,0,0,1-.1,1.6A1.2,1.2,0,0,1,330.3,61.7Zm-4.9-6.6a1.2,1.2,0,1,1,0,1.6A1,1,0,0,1,325.4,55.1Zm-3.8-3.8a2.1,2.1,0,0,1,2.9,0,2.1,2.1,0,0,1,0,3,2.2,2.2,0,0,1-3,0A2.1,2.1,0,0,1,321.6,51.3Z" style="fill:#40abc7"/><path d="M317.6,64.4h-8.7a.8.8,0,0,0-.7.8v.3a.7.7,0,0,0,.7.7h8.7a.7.7,0,0,0,.7-.7v-.3A.8.8,0,0,0,317.6,64.4Z" style="fill:#40abc7"/><polygon points="179.3 35.9 176.7 36.6 173.9 42 175.2 43.3 180.6 40.5 181.3 37.9 186.6 32.5 184.6 30.6 179.3 35.9" style="fill:#005478"/><path d="M204.4,18.3a3.9,3.9,0,0,0,0-5.6,4,4,0,0,0-5.6,0l-8.7,8.8,5.6,5.6Z" style="fill:#005478"/><path d="M203.5,37.6,185,19.1v-4l-3.5-3.5h-2.7l-1.3,1.3,3.3,3.3v3.3h-3.3l-3.3-3.3-1.3,1.3h0v2.6l3.6,3.6h3.9L199,42.3h0a3.3,3.3,0,0,0,2.3,1,3.3,3.3,0,0,0,3.3-3.3,3,3,0,0,0-1.1-2.4ZM202.3,41a1.4,1.4,0,0,1-2,0,1.4,1.4,0,1,1,2,0Z" style="fill:#0f789c"/><path d="M201.5,13.7a.9.9,0,0,0-1,0l-7.8,7.8,1,1,7.8-7.8A.9.9,0,0,0,201.5,13.7Zm1.9,2a.6.6,0,0,0-.9,0l-7.8,7.8,1,1,7.7-7.8A.7.7,0,0,0,203.4,15.7Z" style="fill:#fff"/><path d="M405.2,118.9a23.2,23.2,0,0,0-26.4,35.6l.2.3-3,8,9.4-2.2h.2a16.9,16.9,0,0,0,4.1,1.9,22.9,22.9,0,0,0,17.8-.9l1.5-.8a24,24,0,0,1,11.2-24.6,20.9,20.9,0,0,0-1.8-5.5A22.7,22.7,0,0,0,405.2,118.9Z" style="fill:#c8d6df"/><path d="M419.6,130.2a24.8,24.8,0,0,0-14-12.6,24.6,24.6,0,0,0-31.3,15,24.8,24.8,0,0,0,3.2,22.4l-2.7,7.3a1.4,1.4,0,0,0,1.6,1.8l8.8-2.1a30.5,30.5,0,0,0,4.1,1.9,25.2,25.2,0,0,0,8.2,1.4,24.2,24.2,0,0,0,10.5-2.5l1.3-.6a1.7,1.7,0,0,1-.1-.7,6.4,6.4,0,0,1-.2-.7l-1.5.8a23.4,23.4,0,0,1-17.8,1,30.5,30.5,0,0,1-4.1-1.9l-.2-.2-9.4,2.2,3-7.9-.2-.3a23,23,0,0,1-3.2-21.5,22.6,22.6,0,0,1,11.8-13.2,22.9,22.9,0,0,1,17.8-.9,22.6,22.6,0,0,1,13.2,11.8,23.1,23.1,0,0,1,1.9,5.6l.6-.4.5-.3A24.5,24.5,0,0,0,419.6,130.2Z" style="fill:#40abc7"/><path d="M404.7,129.6a10.7,10.7,0,0,0-7.6-3.3,10.1,10.1,0,0,0-10,10.7c.1,3.3,1.8,5.8,4,8.1s2.5,2.7,2.4,4.5h7.2c0-2.5,2.3-4.1,3.8-5.8C407.9,139.8,408.3,133.6,404.7,129.6Z" style="fill:#40abc7"/><path d="M393.4,151.1v1h7.3v-1Z" style="fill:#005478"/><path d="M393.4,154h7.3v-.9h-7.3Z" style="fill:#005478"/><path d="M395.3,155.9h3.4V155h-3.4Z" style="fill:#005478"/><polygon points="401 136.1 397.1 140 393.2 136.1 392.5 136.8 396.7 140.9 396.7 145.1 397.6 145.1 397.6 140.9 401.7 136.8 401 136.1" style="fill:#fff"/><path d="M422.9,137.2l1.8-.8a22.2,22.2,0,0,1,27.9,31.4l3.5,6.7a.6.6,0,0,1-.6.9l-8.7-.9a19.8,19.8,0,0,1-3.4,2.2,22.3,22.3,0,0,1-20.5-39.5Z" style="fill:#0f789c"/><path d="M434.3,165.5a1.9,1.9,0,0,1-1.3.5,1.7,1.7,0,0,1-1.7-1.8,1.7,1.7,0,0,1,1.7-1.7,1.5,1.5,0,0,1,1.3.5,1.7,1.7,0,0,1,.5,1.2A2.1,2.1,0,0,1,434.3,165.5Zm4.1-10.5a8.1,8.1,0,0,1-2.1,1.9,5.4,5.4,0,0,0-1.5,1.2,3.7,3.7,0,0,0-.2,1.4v.5h-3.5v-1a5.1,5.1,0,0,1,.3-2.1l.5-.6,1.2-.9,1.7-1.3a1.7,1.7,0,0,0,.3-1,1.3,1.3,0,0,0-.5-1.2,2,2,0,0,0-1.4-.5,7.6,7.6,0,0,0-3.6,1.2l-1.1-2.6a11.1,11.1,0,0,1,5.2-1.3,5.8,5.8,0,0,1,4.1,1.3,4.1,4.1,0,0,1,.6,5Z" style="fill:#fff"/><path d="M311.7,179.7a1.3,1.3,0,0,0-1.3,1.3v48.3a1.2,1.2,0,0,0,1.3,1.2h36.4a1.2,1.2,0,0,0,1.2-1.2V181a1.2,1.2,0,0,0-1.2-1.3Z" style="fill:#fff"/><path d="M336.5,182.7H323.4a4.9,4.9,0,0,1-4.4-3h-7.3a1.2,1.2,0,0,0-1.2,1.3v48.3a1.2,1.2,0,0,0,1.2,1.3h36.5a1.2,1.2,0,0,0,1.2-1.3V181a1.2,1.2,0,0,0-1.2-1.3h-7.4A4.8,4.8,0,0,1,336.5,182.7Z" style="fill:none"/><path d="M331.8,175.3h0a2.2,2.2,0,0,0-2.2-2.2,2.2,2.2,0,0,0-2.2,2.2h4.4Z" style="fill:none"/><path d="M348.2,176.6h-7v1.3h0a3.4,3.4,0,0,1-.4,1.8h7.4a1.2,1.2,0,0,1,1.2,1.3v48.3a1.2,1.2,0,0,1-1.2,1.3H311.7a1.2,1.2,0,0,1-1.2-1.3V181a1.2,1.2,0,0,1,1.2-1.3H319a4.8,4.8,0,0,1-.3-1.8h0v-1.3h-7a4.4,4.4,0,0,0-4.3,4.4v48.3a4.4,4.4,0,0,0,4.3,4.4h36.5a4.4,4.4,0,0,0,4.3-4.4V181A4.4,4.4,0,0,0,348.2,176.6Z" style="fill:#40abc7"/><path d="M335.5,175.3h0a5.9,5.9,0,0,0-11.7,0h-5.1v2.6h0a4.8,4.8,0,0,0,.3,1.8,4.9,4.9,0,0,0,4.4,3h13.1a4.8,4.8,0,0,0,4.3-3,3.4,3.4,0,0,0,.4-1.8h0v-2.6Zm-3.7,0h-4.4a2.2,2.2,0,0,1,2.2-2.2,2.2,2.2,0,0,1,2.2,2.2Z" style="fill:#005478"/><path d="M341.3,191H324.6a.7.7,0,0,0-.7.7v.2a.7.7,0,0,0,.7.7h16.7a.8.8,0,0,0,.7-.7v-.2A.8.8,0,0,0,341.3,191Z" style="fill:#40abc7"/><rect x="316.5" y="189.6" width="4.4" height="4.37" style="fill:#005478"/><path d="M341.3,197.8H324.6a.7.7,0,0,0-.7.7v.2a.7.7,0,0,0,.7.7h16.7a.8.8,0,0,0,.7-.7v-.2A.8.8,0,0,0,341.3,197.8Z" style="fill:#40abc7"/><rect x="316.5" y="196.4" width="4.4" height="4.37" style="fill:#005478"/><path d="M341.3,204.6H324.6a.7.7,0,0,0-.7.7v.2a.7.7,0,0,0,.7.7h16.7a.8.8,0,0,0,.7-.7v-.2A.8.8,0,0,0,341.3,204.6Z" style="fill:#40abc7"/><rect x="316.5" y="203.2" width="4.4" height="4.37" style="fill:#005478"/><path d="M341.3,211.5H324.6a.7.7,0,0,0-.7.6v.3a.7.7,0,0,0,.7.7h16.7a.8.8,0,0,0,.7-.7v-.3C342,211.8,341.6,211.5,341.3,211.5Z" style="fill:#40abc7"/><rect x="316.5" y="210.1" width="4.4" height="4.37" style="fill:#005478"/><path d="M341.3,218.3H324.6a.7.7,0,0,0-.7.7v.2a.7.7,0,0,0,.7.7h16.7a.8.8,0,0,0,.7-.7V219A.8.8,0,0,0,341.3,218.3Z" style="fill:#40abc7"/><rect x="316.5" y="216.9" width="4.4" height="4.37" style="fill:#005478"/><circle cx="355.9" cy="205.4" r="11.8" style="fill:#005478"/><polygon points="354.1 210.8 349.5 206.2 350.9 204.9 353.8 207.4 361.3 201 362.6 202.3 354.1 210.8" style="fill:#40abc7"/><path d="M101.3,59.5,89.7,47.9H72.6a2.2,2.2,0,0,0-2.2,2.2v.2h0V91.7H99.1a2.2,2.2,0,0,0,2.2-2.2V88.2h0V59.5Z" style="fill:#40abc7"/><path d="M97,63.9H74.9a.6.6,0,0,0-.5.6v.3a.6.6,0,0,0,.5.6H97a.6.6,0,0,0,.5-.6v-.3A.6.6,0,0,0,97,63.9Z" style="fill:#fff"/><path d="M97,67.9H74.9a.5.5,0,0,0-.5.5v.4a.5.5,0,0,0,.5.5H97a.5.5,0,0,0,.5-.5v-.4A.5.5,0,0,0,97,67.9Z" style="fill:#fff"/><path d="M97,71.8H74.9a.6.6,0,0,0-.5.6v.3a.6.6,0,0,0,.5.6H97a.6.6,0,0,0,.5-.6v-.3A.6.6,0,0,0,97,71.8Z" style="fill:#fff"/><path d="M97,75.8H74.9a.5.5,0,0,0-.5.5v.4a.6.6,0,0,0,.5.6H97a.6.6,0,0,0,.5-.6v-.4A.5.5,0,0,0,97,75.8Z" style="fill:#fff"/><path d="M97,79.7H74.9a.6.6,0,0,0-.5.6v.4a.5.5,0,0,0,.5.5H97a.5.5,0,0,0,.5-.5v-.4A.6.6,0,0,0,97,79.7Z" style="fill:#fff"/><path d="M93.2,83.7H74.9a.6.6,0,0,0-.5.6v.3a.6.6,0,0,0,.5.6H93.2a.6.6,0,0,0,.5-.6v-.3A.6.6,0,0,0,93.2,83.7Z" style="fill:#fff"/><polygon points="101.3 59.5 89.7 59.5 89.7 48 101.3 59.5" style="fill:#0f789c"/><path d="M240.8,222.9a9.3,9.3,0,1,1-9.3-16.1,9.3,9.3,0,1,1,9.3,16.1m7.9-18.4-2.1,1.3a14.1,14.1,0,0,0-4.4-3.4l.6-2.4a.6.6,0,0,0-.4-.7l-4-1.1a.7.7,0,0,0-.7.4l-.6,2.4a13.2,13.2,0,0,0-5.5.8l-1.2-2.2a.5.5,0,0,0-.8-.2l-3.6,2.1a.5.5,0,0,0-.2.8l1.2,2.1a14.1,14.1,0,0,0-3.3,4.4l-2.4-.7a.6.6,0,0,0-.7.4l-1.1,4.1a.6.6,0,0,0,.4.7l2.4.6a14.9,14.9,0,0,0,.7,5.5l-2.1,1.2a.5.5,0,0,0-.2.8l2,3.6a.6.6,0,0,0,.8.2l2.2-1.2a13.7,13.7,0,0,0,4.3,3.3l-.6,2.4a.6.6,0,0,0,.4.7l4,1.1c.3.1.7-.1.7-.4l.7-2.4a14.4,14.4,0,0,0,5.4-.7l1.3,2.1a.4.4,0,0,0,.7.2l3.7-2.1a.6.6,0,0,0,.2-.7l-1.3-2.2a14.1,14.1,0,0,0,3.4-4.3l2.4.6a.6.6,0,0,0,.7-.4l1-4.1a.6.6,0,0,0-.4-.7l-2.4-.6a12.4,12.4,0,0,0-.7-5.4l2.2-1.3a.7.7,0,0,0,.2-.8l-2.1-3.6a.6.6,0,0,0-.8-.2" style="fill:#40abc7"/><path d="M266.2,199.5a7.5,7.5,0,0,1-7.6-13,7.6,7.6,0,0,1,10.3,2.8,7.5,7.5,0,0,1-2.7,10.2m6.3-14.8-1.7,1a10,10,0,0,0-3.5-2.7l.5-1.9a.5.5,0,0,0-.3-.6l-3.3-.9c-.2,0-.5.1-.5.4l-.5,1.9a10.9,10.9,0,0,0-4.4.6l-1-1.8a.5.5,0,0,0-.7-.1l-2.9,1.7a.4.4,0,0,0-.1.6l1,1.7a10,10,0,0,0-2.7,3.5l-2-.5a.4.4,0,0,0-.5.3l-.9,3.3c-.1.2.1.5.3.6l2,.5a11.3,11.3,0,0,0,.5,4.4l-1.7,1a.5.5,0,0,0-.2.6l1.7,2.9a.6.6,0,0,0,.7.2l1.7-1a13.1,13.1,0,0,0,3.5,2.7L257,205c-.1.2.1.5.3.6l3.3.8a.4.4,0,0,0,.5-.3l.5-1.9a10.9,10.9,0,0,0,4.4-.6l1,1.7a.5.5,0,0,0,.6.2l3-1.7a.4.4,0,0,0,.1-.6l-1-1.8a8.5,8.5,0,0,0,2.7-3.5l2,.6c.2,0,.5-.1.5-.4l.9-3.2a.5.5,0,0,0-.3-.6l-2-.5a10.9,10.9,0,0,0-.5-4.4l1.7-1a.5.5,0,0,0,.2-.6l-1.7-2.9c-.2-.3-.4-.3-.7-.2" style="fill:#fff"/><path d="M207.9,10.4c-.1-.1-.3-.2-.4-.4a1.1,1.1,0,0,1,.3-1.4h.2a1,1,0,0,1,1.3.4,1,1,0,0,1-.4,1.4h-1Zm5.6-2.8a1.2,1.2,0,0,1-.5-.5,1.1,1.1,0,0,1,.5-1.4h.1a1,1,0,0,1,1.3.5.9.9,0,0,1-.5,1.3h-.1A1.1,1.1,0,0,1,213.5,7.6Zm5.8-2.3a.9.9,0,0,1-.6-.6,1,1,0,0,1,.6-1.3h.2a1,1,0,0,1,1.3.6,1.1,1.1,0,0,1-.7,1.3H220A.9.9,0,0,1,219.3,5.3Zm6-1.7a1.1,1.1,0,0,1-.6-.7.9.9,0,0,1,.7-1.2h.1a1.1,1.1,0,0,1,1.3.7,1,1,0,0,1-.8,1.2h-.7ZM295,33.1a1,1,0,0,1-.5-.4h0a1,1,0,0,1,1.7-1.1,1.1,1.1,0,0,1-.3,1.5A1,1,0,0,1,295,33.1ZM231.4,2.5c-.3-.2-.6-.5-.6-.8a1,1,0,0,1,.8-1.2h.2a1.1,1.1,0,0,1,1.1.9.9.9,0,0,1-.9,1.1h-.6Zm60.1,25.4-.4-.3h0a.9.9,0,0,1,.2-1.4,1,1,0,0,1,1.4.2h.1a1,1,0,0,1-1.3,1.5ZM237.6,2a1.1,1.1,0,0,1-.6-1,1,1,0,0,1,1-1,1.2,1.2,0,0,1,1.1,1,1,1,0,0,1-1,1h-.5Zm50,21.1-.3-.2h-.1a1.1,1.1,0,0,1,.1-1.5,1.1,1.1,0,0,1,1.4.1,1.1,1.1,0,0,1,0,1.5A.9.9,0,0,1,287.6,23.1ZM243.8,2a.9.9,0,0,1-.6-1,1,1,0,0,1,1.1-.9,1.1,1.1,0,0,1,1,1.1,1,1,0,0,1-1.1.9h-.4Zm39.4,16.7-.3-.2h0a1.1,1.1,0,0,1-.1-1.5,1.1,1.1,0,0,1,1.4-.1h.1a1.1,1.1,0,0,1,.1,1.5A1.1,1.1,0,0,1,283.2,18.7ZM250,2.7a1,1,0,0,1-.6-1.1,1,1,0,0,1,1.1-.8h.1a1,1,0,0,1,.9,1.2,1,1,0,0,1-1.2.8H250Zm28.4,12h-.3a1.2,1.2,0,0,1-.2-1.5,1.2,1.2,0,0,1,1.5-.2,1.1,1.1,0,0,1,.2,1.5A1,1,0,0,1,278.4,14.7ZM256,4a1.1,1.1,0,0,1-.5-1.2.9.9,0,0,1,1.2-.7h.1a.9.9,0,0,1,.7,1.2,1,1,0,0,1-1.2.8H256Zm17.3,7.3h-.2a1,1,0,0,1-.4-1.4,1,1,0,0,1,1.4-.4h.1a1.1,1.1,0,0,1,.4,1.4A1.1,1.1,0,0,1,273.3,11.3ZM262,5.8a1.1,1.1,0,0,1-.6-1.3,1.1,1.1,0,0,1,1.4-.5,1,1,0,0,1-.7,1.9H262Zm5.8,2.5h-.1a1,1,0,0,1-.5-1.3,1.1,1.1,0,0,1,1.4-.5h.1a.9.9,0,0,1,.4,1.3A1,1,0,0,1,267.8,8.3Z" style="fill:#40abc7"/></svg>